<svg width="86" height="105" viewBox="0 0 86 105" fill="none" xmlns="http://www.w3.org/2000/svg">
<path d="M43.7906 55.5856C50.6057 56.8849 58.1997 58.9179 64.2653 62.7438C56.6864 62.0806 49.2103 60.8915 41.7077 58.4371C35.6372 56.4511 39.6687 54.7997 43.7906 55.5856Z" fill="white"/>
<path d="M67.3557 11.5221C66.032 7.28726 57.6117 6.45233 53.979 5.78221C41.6169 3.50178 20.637 3.54808 12.5664 15.4386C3.919 28.1789 3.09411 48.258 7.82859 62.3112C13.9671 80.5319 32.1361 101 52.9944 100.196C65.9489 99.697 78.1872 92.1317 75.1244 77.5809C72.0616 63.0296 56.559 58.0199 43.7906 55.5856C39.6687 54.7997 35.6372 56.4511 41.7077 58.4371C54.9281 62.7621 68.0661 63.1581 81.8296 63.671" stroke="#5A7FA1" stroke-width="8" stroke-linecap="round"/>
</svg>
