<svg width="784" height="108" viewBox="0 0 784 108" fill="none" xmlns="http://www.w3.org/2000/svg">
<path d="M43.7906 55.5856C50.6057 56.8849 58.1997 58.9179 64.2653 62.7438C56.6864 62.0806 49.2103 60.8915 41.7077 58.4371C35.6372 56.4511 39.6687 54.7997 43.7906 55.5856Z" fill="white"/>
<path d="M67.3557 11.5221C66.032 7.28726 57.6117 6.45233 53.979 5.78221C41.6169 3.50178 20.637 3.54808 12.5664 15.4386C3.919 28.1789 3.09411 48.258 7.82859 62.3112C13.9671 80.5319 32.1361 101 52.9944 100.196C65.9489 99.697 78.1872 92.1317 75.1244 77.5809C72.0616 63.0296 56.559 58.0199 43.7906 55.5856C39.6687 54.7997 35.6372 56.4511 41.7077 58.4371C54.9281 62.7621 68.0661 63.1581 81.8296 63.671" stroke="white" stroke-width="8" stroke-linecap="round"/>
<path d="M138.497 56.7343H143.781V85.6264C143.781 88.6093 143.078 91.2727 141.672 93.6164C140.28 95.946 138.312 97.7855 135.77 99.1349C133.227 100.47 130.244 101.138 126.821 101.138C123.398 101.138 120.415 100.47 117.872 99.1349C115.329 97.7855 113.355 95.946 111.949 93.6164C110.557 91.2727 109.861 88.6093 109.861 85.6264V56.7343H115.145V85.2002C115.145 87.3309 115.613 89.2272 116.551 90.8891C117.488 92.5369 118.824 93.8366 120.557 94.7883C122.304 95.7258 124.392 96.1945 126.821 96.1945C129.25 96.1945 131.338 95.7258 133.085 94.7883C134.832 93.8366 136.167 92.5369 137.091 90.8891C138.028 89.2272 138.497 87.3309 138.497 85.2002V56.7343ZM154.333 100.371V56.7343H180.668V61.4218H159.617V76.1661H179.305V80.8536H159.617V95.6832H181.009V100.371H154.333ZM214.056 67.6434C213.801 65.4843 212.764 63.8082 210.945 62.615C209.127 61.4218 206.897 60.8252 204.255 60.8252C202.323 60.8252 200.633 61.1377 199.184 61.7627C197.749 62.3877 196.627 63.2471 195.818 64.3409C195.022 65.4346 194.624 66.6775 194.624 68.0695C194.624 69.2343 194.901 70.2357 195.455 71.0738C196.024 71.8977 196.748 72.5866 197.629 73.1406C198.509 73.6803 199.433 74.1278 200.399 74.4829C201.364 74.8238 202.252 75.1008 203.062 75.3139L207.494 76.507C208.63 76.8053 209.894 77.2173 211.286 77.7428C212.693 78.2684 214.035 78.9857 215.313 79.8948C216.606 80.7897 217.671 81.9403 218.509 83.3465C219.347 84.7528 219.766 86.4786 219.766 88.5241C219.766 90.882 219.149 93.0127 217.913 94.9161C216.691 96.8195 214.901 98.3323 212.543 99.4545C210.2 100.577 207.352 101.138 203.999 101.138C200.874 101.138 198.168 100.633 195.882 99.6249C193.609 98.6164 191.819 97.2102 190.512 95.4062C189.22 93.6022 188.488 91.507 188.318 89.1207H193.772C193.914 90.7684 194.468 92.132 195.434 93.2116C196.414 94.2769 197.65 95.0724 199.141 95.598C200.647 96.1093 202.266 96.365 203.999 96.365C206.016 96.365 207.828 96.0383 209.433 95.3849C211.038 94.7173 212.309 93.794 213.247 92.615C214.184 91.4218 214.653 90.0298 214.653 88.4389C214.653 86.99 214.248 85.811 213.438 84.9019C212.629 83.9928 211.563 83.2542 210.242 82.686C208.921 82.1178 207.494 81.6207 205.96 81.1945L200.59 79.6605C197.181 78.6803 194.482 77.2812 192.494 75.463C190.505 73.6448 189.511 71.2656 189.511 68.3252C189.511 65.882 190.171 63.7514 191.492 61.9332C192.828 60.1008 194.617 58.6803 196.862 57.6718C199.12 56.6491 201.641 56.1377 204.426 56.1377C207.238 56.1377 209.738 56.642 211.926 57.6505C214.113 58.6448 215.846 60.0085 217.124 61.7414C218.417 63.4744 219.099 65.4417 219.17 67.6434H214.056ZM252.318 67.6434C252.062 65.4843 251.025 63.8082 249.207 62.615C247.389 61.4218 245.159 60.8252 242.517 60.8252C240.585 60.8252 238.895 61.1377 237.446 61.7627C236.011 62.3877 234.889 63.2471 234.079 64.3409C233.284 65.4346 232.886 66.6775 232.886 68.0695C232.886 69.2343 233.163 70.2357 233.717 71.0738C234.285 71.8977 235.01 72.5866 235.89 73.1406C236.771 73.6803 237.694 74.1278 238.66 74.4829C239.626 74.8238 240.514 75.1008 241.324 75.3139L245.755 76.507C246.892 76.8053 248.156 77.2173 249.548 77.7428C250.954 78.2684 252.297 78.9857 253.575 79.8948C254.868 80.7897 255.933 81.9403 256.771 83.3465C257.609 84.7528 258.028 86.4786 258.028 88.5241C258.028 90.882 257.41 93.0127 256.174 94.9161C254.953 96.8195 253.163 98.3323 250.805 99.4545C248.461 100.577 245.613 101.138 242.261 101.138C239.136 101.138 236.43 100.633 234.143 99.6249C231.871 98.6164 230.081 97.2102 228.774 95.4062C227.481 93.6022 226.75 91.507 226.579 89.1207H232.034C232.176 90.7684 232.73 92.132 233.696 93.2116C234.676 94.2769 235.912 95.0724 237.403 95.598C238.909 96.1093 240.528 96.365 242.261 96.365C244.278 96.365 246.089 96.0383 247.694 95.3849C249.299 94.7173 250.571 93.794 251.508 92.615C252.446 91.4218 252.915 90.0298 252.915 88.4389C252.915 86.99 252.51 85.811 251.7 84.9019C250.89 83.9928 249.825 83.2542 248.504 82.686C247.183 82.1178 245.755 81.6207 244.221 81.1945L238.852 79.6605C235.443 78.6803 232.744 77.2812 230.755 75.463C228.767 73.6448 227.772 71.2656 227.772 68.3252C227.772 65.882 228.433 63.7514 229.754 61.9332C231.089 60.1008 232.879 58.6803 235.123 57.6718C237.382 56.6491 239.903 56.1377 242.687 56.1377C245.5 56.1377 248 56.642 250.187 57.6505C252.375 58.6448 254.108 60.0085 255.386 61.7414C256.679 63.4744 257.361 65.4417 257.432 67.6434H252.318Z" fill="white"/>
<path d="M288 14C319.679 14 351.295 16 383 16" stroke="white" stroke-width="8" stroke-linecap="round"/>
<path d="M336 17C336 44.6575 338 72.2996 338 100" stroke="white" stroke-width="8" stroke-linecap="round"/>
<path d="M388.284 105V61.3636H393.568V80.7955H416.835V61.3636H422.119V105H416.835V85.483H393.568V105H388.284ZM432.698 105V61.3636H459.033V66.0511H437.982V80.7955H457.67V85.483H437.982V100.312H459.374V105H432.698Z" fill="white"/>
<path d="M615.284 105V61.3636H620.568V80.7955H643.835V61.3636H649.119V105H643.835V85.483H620.568V105H615.284ZM661.488 105H655.948L671.971 61.3636H677.425L693.448 105H687.908L674.869 68.267H674.528L661.488 105ZM663.533 87.9545H685.863V92.642H663.533V87.9545ZM700.245 61.3636H706.552L721.381 97.5852H721.893L736.722 61.3636H743.029V105H738.086V71.8466H737.66L724.023 105H719.251L705.614 71.8466H705.188V105H700.245V61.3636ZM753.624 105V61.3636H768.368C771.792 61.3636 774.59 61.9815 776.763 63.2173C778.951 64.4389 780.57 66.0938 781.621 68.1818C782.672 70.2699 783.198 72.5994 783.198 75.1705C783.198 77.7415 782.672 80.0781 781.621 82.1804C780.584 84.2827 778.979 85.9588 776.806 87.2088C774.632 88.4446 771.848 89.0625 768.453 89.0625H757.885V84.375H768.283C770.627 84.375 772.509 83.9702 773.929 83.1605C775.35 82.3509 776.38 81.2571 777.019 79.8793C777.672 78.4872 777.999 76.9176 777.999 75.1705C777.999 73.4233 777.672 71.8608 777.019 70.483C776.38 69.1051 775.343 68.0256 773.908 67.2443C772.473 66.4489 770.57 66.0511 768.198 66.0511H758.908V105H753.624Z" fill="white"/>
<path d="M594.054 13.8892C590.759 11.6922 584.368 11.0995 580.61 10.5558C567.906 8.71827 554.503 11.6305 542.776 16.4447C522.889 24.6089 516.528 40.3194 518.276 61.4447C519.768 79.4692 543.583 93.3547 558.721 99.278C571.723 104.366 586.359 102.889 600.054 102.889" stroke="white" stroke-width="8" stroke-linecap="round"/>
</svg>
